<?xml version="1.0" standalone="no"?>
<!DOCTYPE svg PUBLIC "-//W3C//DTD SVG 20010904//EN"
 "http://www.w3.org/TR/2001/REC-SVG-20010904/DTD/svg10.dtd">
<svg version="1.0" xmlns="http://www.w3.org/2000/svg"
 width="844.000000pt" height="446.000000pt" viewBox="0 0 844.000000 446.000000"
 preserveAspectRatio="xMidYMid meet">

<g transform="translate(0.000000,446.000000) scale(0.100000,-0.100000)"
fill="#ffffff" stroke="none">
<path d="M3530 4262 c0 -7 24 -45 53 -85 62 -83 170 -234 595 -827 167 -234
321 -447 342 -475 35 -48 235 -327 425 -595 231 -325 405 -569 461 -644 34
-45 72 -101 85 -124 13 -23 29 -40 34 -39 7 3 10 206 10 583 0 500 -2 583 -15
601 -8 12 -73 101 -144 200 -72 98 -212 293 -312 433 -101 140 -261 363 -356
494 -95 131 -201 280 -235 330 -34 50 -75 107 -92 126 l-30 35 -410 0 c-324 0
-411 -3 -411 -13z"/>
<path d="M5222 4273 c-166 -3 -203 -6 -199 -17 5 -13 45 -70 177 -251 36 -50
72 -102 81 -115 16 -24 22 -25 129 -28 86 -3 115 -1 121 10 11 17 11 369 0
387 -11 17 -46 18 -309 14z"/>
<path d="M2872 3668 l3 -583 47 -65 c252 -346 449 -618 607 -842 83 -117 248
-347 411 -576 99 -139 107 -147 145 -154 56 -10 793 -10 799 0 3 5 -34 62 -81
128 -190 263 -595 826 -713 993 -58 81 -166 232 -240 334 -74 103 -200 279
-280 391 -80 111 -251 351 -381 532 -129 181 -250 350 -268 377 -17 26 -36 47
-42 47 -6 0 -9 -206 -7 -582z"/>
<path d="M2874 1847 c-2 -7 -3 -98 -2 -202 l3 -190 40 -7 c22 -4 138 -7 258
-7 244 -1 243 -1 188 68 -15 20 -72 99 -126 176 -53 77 -106 148 -117 158 -17
14 -40 17 -129 17 -80 0 -111 -3 -115 -13z"/>
<path d="M1649 806 c-113 -40 -199 -168 -199 -295 0 -104 67 -218 154 -264 31
-16 65 -22 136 -25 83 -4 102 -1 143 18 94 45 158 147 160 258 3 133 -60 234
-182 295 -62 30 -149 36 -212 13z m168 -47 c41 -15 81 -57 111 -114 37 -73 43
-203 12 -266 -48 -96 -117 -138 -204 -123 -88 14 -144 62 -188 160 -44 100 -8
268 68 315 62 38 144 50 201 28z"/>
<path d="M2385 813 c-27 -3 -53 -10 -57 -16 -4 -7 -7 -137 -7 -289 l0 -278 24
-6 c13 -3 33 0 45 6 21 11 22 16 15 90 -9 102 -3 118 43 125 125 21 195 75
207 158 9 59 0 97 -35 145 -39 54 -112 74 -235 65z m139 -54 c71 -32 74 -179
6 -244 -22 -21 -40 -28 -72 -29 -39 -1 -43 1 -49 29 -9 39 -11 219 -3 239 7
19 80 22 118 5z"/>
<path d="M3734 786 c-21 -18 -45 -50 -53 -71 -22 -62 -2 -107 95 -216 93 -103
115 -149 93 -200 -22 -56 -114 -52 -165 6 -27 30 -33 33 -43 21 -19 -22 7 -67
49 -88 49 -25 136 -24 178 2 61 37 82 142 41 203 -12 18 -57 68 -100 112 -85
87 -102 118 -90 162 14 52 96 71 145 32 32 -25 52 -14 41 21 -8 27 -61 50
-113 50 -29 0 -48 -8 -78 -34z"/>
<path d="M7263 801 c-50 -23 -73 -62 -73 -125 0 -66 12 -89 94 -175 81 -85
106 -125 106 -170 0 -70 -101 -96 -163 -41 -42 37 -57 38 -57 5 0 -41 31 -62
103 -70 71 -8 98 -2 139 28 29 21 58 82 58 120 0 34 -54 110 -112 159 -76 63
-108 112 -108 164 0 33 5 46 22 58 31 22 77 20 117 -5 25 -15 36 -17 41 -9 14
22 -3 52 -36 66 -45 19 -81 17 -131 -5z"/>
<path d="M219 771 c-35 -34 -39 -44 -39 -88 0 -61 32 -114 130 -218 67 -71 70
-76 70 -123 0 -38 -5 -53 -23 -70 -38 -36 -105 -24 -151 27 -27 30 -38 26 -34
-11 4 -49 52 -70 142 -66 66 4 71 6 102 42 73 84 58 141 -75 279 -54 56 -101
113 -104 126 -11 43 17 88 61 102 36 10 44 9 75 -10 43 -26 57 -27 57 -2 0 33
-38 51 -108 51 -61 0 -66 -2 -103 -39z"/>
<path d="M907 796 c-82 -30 -141 -95 -177 -199 -25 -71 -25 -123 -1 -187 46
-122 134 -178 295 -187 113 -7 160 6 182 49 8 16 14 31 12 33 -2 2 -31 -10
-63 -26 -52 -26 -68 -30 -114 -25 -84 8 -152 47 -197 112 l-39 56 0 107 c0
102 1 109 28 144 55 72 89 90 182 95 72 4 90 1 125 -17 50 -26 50 -26 50 -1 0
39 -55 60 -155 60 -49 -1 -107 -7 -128 -14z"/>
<path d="M2927 803 c-3 -5 -4 -105 -4 -223 2 -196 4 -219 23 -261 14 -30 35
-54 60 -70 35 -21 50 -24 146 -24 103 0 107 1 145 31 73 58 81 90 85 334 l2
215 -28 0 -29 0 -1 -220 c-1 -241 -6 -262 -63 -301 -38 -26 -157 -27 -196 -1
-59 39 -62 51 -62 292 0 135 -4 223 -10 227 -13 10 -63 10 -68 1z"/>
<path d="M4251 796 c-8 -9 -11 -95 -9 -292 l3 -279 35 0 35 0 5 105 5 105 45
6 c53 8 117 33 143 57 11 9 30 39 44 66 21 41 23 56 18 100 -6 43 -15 58 -55
99 l-47 47 -105 0 c-77 0 -109 -4 -117 -14z m208 -45 c26 -26 35 -79 27 -149
-5 -48 -12 -62 -42 -90 -30 -28 -41 -33 -77 -30 l-42 3 -3 129 c-1 72 0 136 2
143 9 22 112 17 135 -6z"/>
<path d="M4847 803 c-11 -10 -8 -404 3 -442 13 -47 48 -96 85 -118 24 -14 51
-18 137 -18 103 0 107 1 144 31 71 57 77 81 84 318 4 131 3 216 -3 224 -5 6
-20 12 -33 12 l-23 0 -3 -236 -3 -236 -37 -33 c-67 -61 -176 -60 -239 3 -45
46 -52 90 -49 317 1 88 2 166 1 173 -1 12 -53 17 -64 5z"/>
<path d="M5609 808 c0 -2 -1 -135 -2 -297 l-2 -293 120 4 c131 5 164 15 207
67 35 40 44 113 21 160 -15 30 -62 67 -108 84 -5 3 2 14 18 27 83 67 73 181
-22 230 -32 16 -59 20 -136 20 -52 0 -95 -1 -96 -2z m213 -68 c26 -33 24 -108
-5 -151 -18 -26 -32 -35 -67 -41 -25 -5 -51 -6 -57 -3 -9 3 -13 35 -13 109 0
121 4 127 78 116 29 -5 52 -15 64 -30z m21 -263 c30 -25 40 -41 44 -73 7 -52
-19 -109 -58 -129 -34 -18 -120 -20 -137 -3 -13 13 -18 219 -5 231 3 4 31 7
62 7 48 0 61 -5 94 -33z"/>
<path d="M6247 803 c-3 -5 -6 -135 -6 -289 l-1 -281 67 -6 c122 -12 200 -9
218 9 31 31 12 38 -96 39 l-104 0 0 265 0 265 -37 3 c-20 2 -38 -1 -41 -5z"/>
<path d="M6813 802 c-9 -6 -11 -73 -8 -267 2 -162 -1 -265 -7 -272 -15 -18 -2
-31 38 -39 26 -5 39 -3 45 7 14 23 11 553 -3 567 -14 14 -47 16 -65 4z"/>
<path d="M7757 804 c-4 -4 -7 -135 -7 -290 l0 -284 25 -6 c47 -12 54 6 57 149
l3 132 140 2 c77 2 146 -1 153 -6 10 -6 14 -42 15 -139 l2 -131 28 -7 c16 -3
33 -2 38 3 5 5 8 131 7 294 l-3 284 -39 0 -39 0 2 -132 2 -133 -94 0 c-52 0
-122 3 -155 6 l-61 7 -3 126 -3 126 -30 3 c-17 2 -34 0 -38 -4z"/>
</g>
</svg>
